<svg width="873" height="633" viewBox="0 0 873 633" fill="none" xmlns="http://www.w3.org/2000/svg">
<g clip-path="url(#clip0_39_2)">
<path d="M92.2798 313.889V326.111" stroke="white" stroke-opacity="0.35" stroke-width="4" stroke-linecap="round"/>
<path d="M110.61 312.361V327.639" stroke="white" stroke-opacity="0.4" stroke-width="4" stroke-linecap="round"/>
<path d="M128.94 310.833V329.167" stroke="white" stroke-opacity="0.45" stroke-width="4" stroke-linecap="round"/>
<path d="M147.27 307.778V332.222" stroke="white" stroke-opacity="0.6" stroke-width="4" stroke-linecap="round"/>
<path d="M165.6 304.722V335.278" stroke="white" stroke-opacity="0.73" stroke-width="4" stroke-linecap="round"/>
<path d="M183.93 301.667V338.333" stroke="white" stroke-opacity="0.8" stroke-width="4" stroke-linecap="round"/>
<path d="M202.26 297.083V342.917" stroke="white" stroke-opacity="0.85" stroke-width="4" stroke-linecap="round"/>
<path d="M220.59 290.972V349.028" stroke="white" stroke-opacity="0.9" stroke-width="4" stroke-linecap="round"/>
<path d="M238.92 283.333V356.667" stroke="white" stroke-opacity="0.95" stroke-width="4" stroke-linecap="round"/>
<path d="M257.25 272.639V367.361" stroke="white" stroke-width="4" stroke-linecap="round"/>
<path d="M275.58 260.417V379.583" stroke="white" stroke-opacity="0.95" stroke-width="4" stroke-linecap="round"/>
<path d="M293.91 245.139V394.861" stroke="white" stroke-opacity="0.98" stroke-width="4" stroke-linecap="round"/>
<path d="M312.24 225.278V414.722" stroke="white" stroke-width="4" stroke-linecap="round"/>
<path d="M330.57 200.833V439.167" stroke="white" stroke-width="4" stroke-linecap="round"/>
<path d="M348.9 171.806V468.195" stroke="white" stroke-width="4" stroke-linecap="round"/>
<path d="M367.23 139.722V500.278" stroke="white" stroke-width="4" stroke-linecap="round"/>
<path d="M385.56 106.111V533.889" stroke="white" stroke-width="4" stroke-linecap="round"/>
<path d="M403.89 75.5557V564.445" stroke="white" stroke-width="4" stroke-linecap="round"/>
<path d="M422.22 75.5557V564.445" stroke="white" stroke-width="4" stroke-linecap="round"/>
<path d="M440.55 106.111V533.889" stroke="white" stroke-width="4" stroke-linecap="round"/>
<path d="M458.88 139.722V500.278" stroke="white" stroke-width="4" stroke-linecap="round"/>
<path d="M477.21 171.806V468.195" stroke="white" stroke-width="4" stroke-linecap="round"/>
<path d="M495.54 200.833V439.167" stroke="white" stroke-width="4" stroke-linecap="round"/>
<path d="M513.87 225.278V414.722" stroke="white" stroke-width="4" stroke-linecap="round"/>
<path d="M532.2 245.139V394.861" stroke="white" stroke-width="4" stroke-linecap="round"/>
<path d="M550.53 260.417V379.583" stroke="white" stroke-width="4" stroke-linecap="round"/>
<path d="M568.86 272.639V367.361" stroke="white" stroke-width="4" stroke-linecap="round"/>
<path d="M587.19 283.333V356.667" stroke="white" stroke-opacity="0.95" stroke-width="4" stroke-linecap="round"/>
<path d="M605.52 290.972V349.028" stroke="white" stroke-opacity="0.9" stroke-width="4" stroke-linecap="round"/>
<path d="M623.85 297.083V342.917" stroke="white" stroke-opacity="0.85" stroke-width="4" stroke-linecap="round"/>
<path d="M642.18 301.667V338.333" stroke="white" stroke-opacity="0.8" stroke-width="4" stroke-linecap="round"/>
<path d="M660.51 304.722V335.278" stroke="white" stroke-opacity="0.73" stroke-width="4" stroke-linecap="round"/>
<path d="M678.84 307.778V332.222" stroke="white" stroke-opacity="0.6" stroke-width="4" stroke-linecap="round"/>
<path d="M697.17 310.833V329.167" stroke="white" stroke-opacity="0.45" stroke-width="4" stroke-linecap="round"/>
<path d="M715.5 312.361V327.639" stroke="white" stroke-opacity="0.4" stroke-width="4" stroke-linecap="round"/>
<path d="M733.83 313.889V326.111" stroke="white" stroke-opacity="0.35" stroke-width="4" stroke-linecap="round"/>
</g>
<defs>
<clipPath id="clip0_39_2">
<rect width="873" height="633" fill="white"/>
</clipPath>
</defs>
</svg>
